<?xml version="1.0" standalone="no"?>
<!DOCTYPE svg PUBLIC "-//W3C//DTD SVG 20010904//EN"
 "http://www.w3.org/TR/2001/REC-SVG-20010904/DTD/svg10.dtd">
<svg version="1.0" xmlns="http://www.w3.org/2000/svg"
 width="300.000000pt" height="300.000000pt" viewBox="0 0 300.000000 300.000000"
 preserveAspectRatio="xMidYMid meet">
<metadata>
Created by potrace 1.10, written by Peter Selinger 2001-2011
</metadata>
<g transform="translate(0.000000,300.000000) scale(0.050000,-0.050000)"
fill="#7c99ee" stroke="none">
<path d="M2970 5595 c-26 -140 -3 -464 34 -471 33 -6 59 310 40 481 -9 76 -60
69 -74 -10z"/>
<path d="M2321 5521 c-21 -13 -5 -61 74 -224 128 -261 153 -296 189 -261 21
22 5 66 -94 257 -132 254 -130 251 -169 228z"/>
<path d="M3606 5445 c-218 -399 -229 -425 -178 -425 47 0 286 441 261 481 -21
34 -41 20 -83 -56z"/>
<path d="M1720 5193 c0 -70 629 -592 668 -553 24 24 45 4 -333 328 -290 248
-335 278 -335 225z"/>
<path d="M3930 4946 c-284 -258 -334 -316 -275 -316 51 0 625 517 625 563 0
59 -62 15 -350 -247z"/>
<path d="M2764 4896 c-17 -17 -24 -139 -24 -420 0 -468 47 -419 -392 -411
-388 6 -371 19 -364 -273 l6 -222 364 2 364 2 6 -855 c5 -758 10 -859 39 -892
31 -35 106 -203 170 -381 66 -183 75 -175 220 204 l77 200 6 865 6 865 366 0
367 0 10 50 c15 82 18 378 4 416 -13 32 -45 36 -326 34 -172 -1 -338 -1 -368
-1 l-56 1 2 399 c2 219 -3 408 -10 420 -19 30 -436 28 -467 -3z"/>
<path d="M4550 4698 c-165 -64 -678 -331 -687 -359 -22 -65 672 230 774 330
55 54 13 67 -87 29z"/>
<path d="M1352 4704 c-19 -31 345 -225 674 -358 161 -66 126 5 -50 101 -358
195 -600 295 -624 257z"/>
<path d="M1160 4074 c0 -43 59 -54 358 -68 225 -10 266 -8 258 16 -17 52 -616
103 -616 52z"/>
<path d="M4483 4080 c-222 -24 -286 -39 -271 -64 15 -24 531 -12 594 14 123
51 -57 78 -323 50z"/>
<path d="M1460 3467 c-272 -82 -357 -139 -179 -120 136 15 503 135 514 169 14
40 -90 25 -335 -49z"/>
<path d="M4180 3520 c0 -35 335 -150 545 -188 145 -26 91 42 -70 89 -80 23
-204 59 -277 80 -148 44 -198 48 -198 19z"/>
<path d="M3791 3302 c-20 -33 710 -542 776 -542 67 0 -39 94 -312 277 -365
244 -448 291 -464 265z"/>
<path d="M1877 3125 c-435 -285 -506 -345 -410 -345 42 0 751 476 752 505 2
45 -103 -4 -342 -160z"/>
<path d="M2288 2865 c-337 -447 -422 -579 -394 -607 32 -32 561 682 535 723
-21 35 -39 20 -141 -116z"/>
<path d="M3560 2975 c0 -29 19 -59 209 -328 193 -276 312 -414 336 -390 23 23
7 48 -243 393 -246 341 -302 401 -302 325z"/>
<path d="M2061 1724 c-132 -8 -165 -31 -157 -112 6 -61 7 -62 133 -68 l126 -6
-6 -444 -7 -444 85 -6 c81 -6 85 -3 88 50 2 31 5 65 8 76 2 11 5 189 7 395 l2
375 106 0 c122 0 154 23 154 112 0 89 -68 99 -539 72z"/>
<path d="M3273 1646 c-26 -53 -54 -118 -62 -146 -8 -27 -56 -160 -106 -295
-104 -282 -99 -283 -203 5 -164 450 -181 485 -223 460 -37 -24 -21 -98 171
-750 138 -473 204 -403 466 503 75 262 48 404 -43 223z"/>
<path d="M3500 1725 c-143 -54 -67 -184 108 -185 l78 0 -11 -448 -11 -448 56
-8 c136 -20 137 -19 139 404 3 504 1 493 123 510 54 8 99 20 99 27 1 7 6 34
11 61 17 91 -16 102 -299 100 -145 0 -276 -6 -293 -13z"/>
<path d="M4193 1714 c-86 -62 -36 -143 94 -154 l118 -10 -4 -442 c-3 -476 -5
-468 99 -468 93 0 100 36 100 490 l0 428 125 6 125 6 0 80 0 80 -311 5 c-233
5 -319 -1 -346 -21z"/>
<path d="M1134 1706 c-29 -7 -35 -26 -30 -93 l6 -83 125 3 124 4 6 -454 5
-453 70 -5 c126 -10 126 -13 133 468 l6 437 95 6 c118 8 150 33 142 112 l-6
62 -320 3 c-176 2 -336 -1 -356 -7z"/>
</g>
</svg>
